<svg width="209" height="199" viewBox="0 0 209 199" fill="none" xmlns="http://www.w3.org/2000/svg">
<path d="M51.8968 143.33C50.7368 143.33 49.7968 142.39 49.7968 141.23V67.78C44.8568 74.25 37.2968 76.16 37.1868 76.19C36.0568 76.46 34.9268 75.77 34.6568 74.64C34.3868 73.52 35.0768 72.38 36.1968 72.11C36.7868 71.96 49.7968 68.57 49.7968 54.76C49.7968 53.6 50.7368 52.66 51.8968 52.66C53.0568 52.66 53.9968 53.6 53.9968 54.76V141.23C53.9968 142.39 53.0568 143.33 51.8968 143.33Z" fill="white"/>
<path d="M36.5468 129.71C36.2768 129.71 36.1068 129.71 36.0668 129.7C34.9068 129.64 34.0168 128.66 34.0768 127.5C34.1368 126.34 35.1168 125.46 36.2668 125.51C36.3368 125.52 42.4668 125.74 46.3968 121.98C48.6468 119.82 49.7968 116.69 49.7968 112.66C49.7968 111.5 50.7368 110.56 51.8968 110.56C53.0568 110.56 53.9968 111.5 53.9968 112.66C53.9968 117.89 52.4068 122.05 49.2768 125.03C44.7168 129.37 38.3468 129.7 36.5568 129.7L36.5468 129.71Z" fill="white"/>
<path d="M36.5468 86.74C36.2768 86.74 36.1068 86.74 36.0668 86.73C34.9068 86.67 34.0168 85.69 34.0768 84.53C34.1368 83.37 35.1168 82.5 36.2668 82.54C36.3368 82.55 42.4668 82.77 46.3968 79.01C48.6468 76.85 49.7968 73.72 49.7968 69.69C49.7968 68.53 50.7368 67.59 51.8968 67.59C53.0568 67.59 53.9968 68.53 53.9968 69.69C53.9968 74.92 52.4068 79.08 49.2768 82.06C44.7168 86.4 38.3468 86.73 36.5568 86.73L36.5468 86.74Z" fill="white"/>
<path d="M36.5468 97.74C36.2768 97.74 36.1068 97.74 36.0668 97.73C34.9068 97.67 34.0168 96.69 34.0768 95.53C34.1368 94.38 35.1168 93.52 36.2668 93.54C36.3368 93.54 42.4668 93.77 46.3968 90.01C48.6468 87.85 49.7968 84.72 49.7968 80.69C49.7968 79.53 50.7368 78.59 51.8968 78.59C53.0568 78.59 53.9968 79.53 53.9968 80.69C53.9968 85.92 52.4068 90.08 49.2768 93.06C44.7168 97.4 38.3468 97.73 36.5568 97.73L36.5468 97.74Z" fill="white"/>
<path d="M36.5468 108.75C36.2768 108.75 36.1068 108.75 36.0668 108.74C34.9068 108.68 34.0168 107.7 34.0768 106.54C34.1368 105.38 35.1168 104.5 36.2668 104.55C36.3368 104.56 42.4668 104.78 46.3968 101.02C48.6468 98.86 49.7968 95.73 49.7968 91.7C49.7968 90.54 50.7368 89.6 51.8968 89.6C53.0568 89.6 53.9968 90.54 53.9968 91.7C53.9968 96.93 52.4068 101.09 49.2768 104.07C44.7168 108.41 38.3468 108.74 36.5568 108.74L36.5468 108.75Z" fill="white"/>
<path d="M36.5468 119.75C36.2768 119.75 36.1068 119.75 36.0668 119.74C34.9068 119.68 34.0168 118.7 34.0768 117.54C34.1368 116.39 35.1168 115.52 36.2668 115.55C36.3368 115.55 42.4668 115.78 46.3968 112.02C48.6468 109.86 49.7968 106.73 49.7968 102.7C49.7968 101.54 50.7368 100.6 51.8968 100.6C53.0568 100.6 53.9968 101.54 53.9968 102.7C53.9968 107.93 52.4068 112.09 49.2768 115.07C44.7168 119.41 38.3468 119.74 36.5568 119.74L36.5468 119.75Z" fill="white"/>
<path d="M52.2468 143.33C51.0868 143.33 50.1468 142.39 50.1468 141.23V54.76C50.1468 53.6 51.0868 52.66 52.2468 52.66C53.4068 52.66 54.3468 53.6 54.3468 54.76C54.3468 68.59 67.3868 71.98 67.9468 72.11C69.0668 72.39 69.7568 73.52 69.4868 74.64C69.2068 75.76 68.0868 76.45 66.9568 76.18C66.8468 76.15 59.2868 74.24 54.3468 67.77V141.22C54.3468 142.38 53.4068 143.32 52.2468 143.32V143.33Z" fill="white"/>
<path d="M67.5968 129.71C65.8068 129.71 59.4368 129.39 54.8768 125.04C51.7468 122.06 50.1568 117.9 50.1568 112.67C50.1568 111.51 51.0968 110.57 52.2568 110.57C53.4168 110.57 54.3568 111.51 54.3568 112.67C54.3568 116.69 55.4968 119.83 57.7568 121.99C61.6868 125.75 67.8168 125.53 67.8868 125.52C68.9868 125.47 70.0268 126.36 70.0768 127.52C70.1268 128.67 69.2468 129.65 68.0868 129.71C68.0468 129.71 67.8768 129.72 67.6068 129.72L67.5968 129.71Z" fill="white"/>
<path d="M67.5968 86.74C65.8068 86.74 59.4368 86.42 54.8768 82.07C51.7468 79.09 50.1568 74.93 50.1568 69.7C50.1568 68.54 51.0968 67.6 52.2568 67.6C53.4168 67.6 54.3568 68.54 54.3568 69.7C54.3568 73.72 55.4968 76.86 57.7568 79.02C61.6868 82.78 67.8168 82.56 67.8868 82.55C68.9868 82.5 70.0268 83.39 70.0768 84.55C70.1268 85.7 69.2468 86.68 68.0868 86.74C68.0468 86.74 67.8768 86.75 67.6068 86.75L67.5968 86.74Z" fill="white"/>
<path d="M67.5968 97.74C65.8068 97.74 59.4368 97.42 54.8768 93.07C51.7468 90.09 50.1568 85.93 50.1568 80.7C50.1568 79.54 51.0968 78.6 52.2568 78.6C53.4168 78.6 54.3568 79.54 54.3568 80.7C54.3568 84.72 55.4968 87.86 57.7568 90.02C61.6868 93.78 67.8168 93.55 67.8868 93.55C68.9868 93.5 70.0268 94.39 70.0768 95.55C70.1268 96.7 69.2468 97.68 68.0868 97.74C68.0468 97.74 67.8768 97.75 67.6068 97.75L67.5968 97.74Z" fill="white"/>
<path d="M67.5968 108.75C65.8068 108.75 59.4368 108.43 54.8768 104.08C51.7468 101.1 50.1568 96.94 50.1568 91.71C50.1568 90.55 51.0968 89.61 52.2568 89.61C53.4168 89.61 54.3568 90.55 54.3568 91.71C54.3568 95.73 55.4968 98.87 57.7568 101.03C61.6868 104.79 67.8168 104.57 67.8868 104.56C68.9868 104.5 70.0268 105.4 70.0768 106.56C70.1268 107.71 69.2468 108.69 68.0868 108.75C68.0468 108.75 67.8768 108.76 67.6068 108.76L67.5968 108.75Z" fill="white"/>
<path d="M67.5968 119.75C65.8068 119.75 59.4368 119.43 54.8768 115.08C51.7468 112.1 50.1568 107.94 50.1568 102.71C50.1568 101.55 51.0968 100.61 52.2568 100.61C53.4168 100.61 54.3568 101.55 54.3568 102.71C54.3568 106.73 55.4968 109.87 57.7568 112.03C61.6868 115.79 67.8168 115.56 67.8868 115.56C68.9868 115.54 70.0268 116.4 70.0768 117.56C70.1268 118.71 69.2468 119.69 68.0868 119.75C68.0468 119.75 67.8768 119.76 67.6068 119.76L67.5968 119.75Z" fill="white"/>
<path d="M47.7068 143.33C46.5468 143.33 45.6068 142.39 45.6068 141.23V67.78C40.6668 74.25 33.1068 76.16 32.9968 76.19C31.8668 76.46 30.7368 75.77 30.4668 74.64C30.1968 73.52 30.8868 72.38 32.0068 72.11C32.5968 71.96 45.6068 68.57 45.6068 54.76C45.6068 53.6 46.5468 52.66 47.7068 52.66C48.8668 52.66 49.8068 53.6 49.8068 54.76V141.23C49.8068 142.39 48.8668 143.33 47.7068 143.33Z" fill="#FF7A34"/>
<path d="M32.3568 129.71C32.0868 129.71 31.9168 129.71 31.8768 129.7C30.7168 129.64 29.8268 128.66 29.8868 127.5C29.9468 126.34 30.9268 125.46 32.0768 125.51C32.1368 125.52 38.2768 125.74 42.2068 121.98C44.4568 119.82 45.6068 116.69 45.6068 112.66C45.6068 111.5 46.5468 110.56 47.7068 110.56C48.8668 110.56 49.8068 111.5 49.8068 112.66C49.8068 117.89 48.2168 122.05 45.0868 125.03C40.5268 129.37 34.1568 129.7 32.3668 129.7L32.3568 129.71Z" fill="#FF7A34"/>
<path d="M32.3568 86.74C32.0868 86.74 31.9168 86.74 31.8768 86.73C30.7168 86.67 29.8268 85.69 29.8868 84.53C29.9468 83.37 30.9268 82.5 32.0768 82.54C32.1368 82.55 38.2768 82.77 42.2068 79.01C44.4568 76.85 45.6068 73.72 45.6068 69.69C45.6068 68.53 46.5468 67.59 47.7068 67.59C48.8668 67.59 49.8068 68.53 49.8068 69.69C49.8068 74.92 48.2168 79.08 45.0868 82.06C40.5268 86.4 34.1568 86.73 32.3668 86.73L32.3568 86.74Z" fill="#FF7A34"/>
<path d="M32.3568 97.74C32.0868 97.74 31.9168 97.74 31.8768 97.73C30.7168 97.67 29.8268 96.69 29.8868 95.53C29.9468 94.38 30.9268 93.52 32.0768 93.54C32.1368 93.54 38.2768 93.77 42.2068 90.01C44.4568 87.85 45.6068 84.72 45.6068 80.69C45.6068 79.53 46.5468 78.59 47.7068 78.59C48.8668 78.59 49.8068 79.53 49.8068 80.69C49.8068 85.92 48.2168 90.08 45.0868 93.06C40.5268 97.4 34.1568 97.73 32.3668 97.73L32.3568 97.74Z" fill="#FF7A34"/>
<path d="M32.3568 108.75C32.0868 108.75 31.9168 108.75 31.8768 108.74C30.7168 108.68 29.8268 107.7 29.8868 106.54C29.9468 105.38 30.9268 104.5 32.0768 104.55C32.1368 104.56 38.2768 104.78 42.2068 101.02C44.4568 98.86 45.6068 95.73 45.6068 91.7C45.6068 90.54 46.5468 89.6 47.7068 89.6C48.8668 89.6 49.8068 90.54 49.8068 91.7C49.8068 96.93 48.2168 101.09 45.0868 104.07C40.5268 108.41 34.1568 108.74 32.3668 108.74L32.3568 108.75Z" fill="#FF7A34"/>
<path d="M32.3568 119.75C32.0868 119.75 31.9168 119.75 31.8768 119.74C30.7168 119.68 29.8268 118.7 29.8868 117.54C29.9468 116.39 30.9268 115.52 32.0768 115.55C32.1368 115.55 38.2768 115.78 42.2068 112.02C44.4568 109.86 45.6068 106.73 45.6068 102.7C45.6068 101.54 46.5468 100.6 47.7068 100.6C48.8668 100.6 49.8068 101.54 49.8068 102.7C49.8068 107.93 48.2168 112.09 45.0868 115.07C40.5268 119.41 34.1568 119.74 32.3668 119.74L32.3568 119.75Z" fill="#FF7A34"/>
<path d="M48.0568 143.33C46.8968 143.33 45.9568 142.39 45.9568 141.23V54.76C45.9568 53.6 46.8968 52.66 48.0568 52.66C49.2168 52.66 50.1568 53.6 50.1568 54.76C50.1568 68.59 63.1968 71.98 63.7568 72.11C64.8768 72.39 65.5668 73.52 65.2968 74.64C65.0168 75.76 63.8968 76.45 62.7668 76.18C62.6568 76.15 55.0968 74.24 50.1568 67.77V141.22C50.1568 142.38 49.2168 143.32 48.0568 143.32V143.33Z" fill="#FF7A34"/>
<path d="M63.3968 129.71C61.6068 129.71 55.2368 129.39 50.6768 125.04C47.5468 122.06 45.9568 117.9 45.9568 112.67C45.9568 111.51 46.8968 110.57 48.0568 110.57C49.2168 110.57 50.1568 111.51 50.1568 112.67C50.1568 116.69 51.2968 119.83 53.5568 121.99C57.4868 125.75 63.6268 125.53 63.6868 125.52C64.7768 125.47 65.8168 126.36 65.8768 127.52C65.9268 128.67 65.0468 129.65 63.8868 129.71C63.8468 129.71 63.6768 129.72 63.4068 129.72L63.3968 129.71Z" fill="#FF7A34"/>
<path d="M63.3968 86.74C61.6068 86.74 55.2368 86.42 50.6768 82.07C47.5468 79.09 45.9568 74.93 45.9568 69.7C45.9568 68.54 46.8968 67.6 48.0568 67.6C49.2168 67.6 50.1568 68.54 50.1568 69.7C50.1568 73.72 51.2968 76.86 53.5568 79.02C57.4868 82.78 63.6268 82.56 63.6868 82.55C64.7768 82.5 65.8168 83.39 65.8768 84.55C65.9268 85.7 65.0468 86.68 63.8868 86.74C63.8468 86.74 63.6768 86.75 63.4068 86.75L63.3968 86.74Z" fill="#FF7A34"/>
<path d="M63.3968 97.74C61.6068 97.74 55.2368 97.42 50.6768 93.07C47.5468 90.09 45.9568 85.93 45.9568 80.7C45.9568 79.54 46.8968 78.6 48.0568 78.6C49.2168 78.6 50.1568 79.54 50.1568 80.7C50.1568 84.72 51.2968 87.86 53.5568 90.02C57.4868 93.78 63.6268 93.55 63.6868 93.55C64.7768 93.5 65.8168 94.39 65.8768 95.55C65.9268 96.7 65.0468 97.68 63.8868 97.74C63.8468 97.74 63.6768 97.75 63.4068 97.75L63.3968 97.74Z" fill="#FF7A34"/>
<path d="M63.3968 108.75C61.6068 108.75 55.2368 108.43 50.6768 104.08C47.5468 101.1 45.9568 96.94 45.9568 91.71C45.9568 90.55 46.8968 89.61 48.0568 89.61C49.2168 89.61 50.1568 90.55 50.1568 91.71C50.1568 95.73 51.2968 98.87 53.5568 101.03C57.4868 104.79 63.6268 104.57 63.6868 104.56C64.7768 104.5 65.8168 105.4 65.8768 106.56C65.9268 107.71 65.0468 108.69 63.8868 108.75C63.8468 108.75 63.6768 108.76 63.4068 108.76L63.3968 108.75Z" fill="#FF7A34"/>
<path d="M63.3968 119.75C61.6068 119.75 55.2368 119.43 50.6768 115.08C47.5468 112.1 45.9568 107.94 45.9568 102.71C45.9568 101.55 46.8968 100.61 48.0568 100.61C49.2168 100.61 50.1568 101.55 50.1568 102.71C50.1568 106.73 51.2968 109.87 53.5568 112.03C57.4868 115.79 63.6268 115.56 63.6868 115.56C64.7768 115.54 65.8168 116.4 65.8768 117.56C65.9268 118.71 65.0468 119.69 63.8868 119.75C63.8468 119.75 63.6768 119.76 63.4068 119.76L63.3968 119.75Z" fill="#FF7A34"/>
<path d="M95.2568 144.36C94.0768 144.36 93.1168 143.4 93.1168 142.22V104.04C89.1168 108.99 83.7468 109.8 83.6568 109.81C82.4968 109.97 81.4168 109.15 81.2568 107.98C81.0968 106.81 81.9168 105.74 83.0768 105.58C83.5268 105.51 93.1168 103.89 93.1168 90.08C93.1168 88.9 94.0768 87.94 95.2568 87.94C96.4368 87.94 97.3968 88.9 97.3968 90.08V142.22C97.3968 143.4 96.4368 144.36 95.2568 144.36Z" fill="white"/>
<path d="M79.6268 122.66C79.3468 122.66 79.1868 122.66 79.1368 122.65C77.9568 122.59 77.0468 121.59 77.1068 120.41C77.1668 119.23 78.1568 118.35 79.3368 118.38C79.4068 118.38 85.6568 118.62 89.6568 114.79C91.9568 112.59 93.1168 109.4 93.1168 105.3C93.1168 104.12 94.0768 103.16 95.2568 103.16C96.4368 103.16 97.3968 104.12 97.3968 105.3C97.3968 110.63 95.7768 114.87 92.5868 117.9C87.9368 122.32 81.4568 122.65 79.6268 122.65V122.66Z" fill="white"/>
<path d="M79.6268 133.87C79.3468 133.87 79.1868 133.87 79.1368 133.86C77.9568 133.8 77.0468 132.8 77.1068 131.62C77.1668 130.44 78.1568 129.57 79.3368 129.59C79.4068 129.59 85.6568 129.82 89.6568 126C91.9568 123.8 93.1168 120.61 93.1168 116.51C93.1168 115.33 94.0768 114.37 95.2568 114.37C96.4368 114.37 97.3968 115.33 97.3968 116.51C97.3968 121.84 95.7768 126.08 92.5868 129.11C87.9368 133.53 81.4568 133.86 79.6268 133.86V133.87Z" fill="white"/>
<path d="M95.6168 144.36C94.4368 144.36 93.4768 143.4 93.4768 142.22V90.08C93.4768 88.9 94.4368 87.94 95.6168 87.94C96.7968 87.94 97.7568 88.9 97.7568 90.08C97.7568 104.08 107.977 106.58 108.407 106.68C109.547 106.94 110.277 108.08 110.017 109.23C109.767 110.38 108.637 111.1 107.487 110.85C107.397 110.83 101.837 109.54 97.7468 104.19V142.22C97.7468 143.4 96.7868 144.36 95.6068 144.36H95.6168Z" fill="white"/>
<path d="M111.247 122.66C109.417 122.66 102.937 122.33 98.2868 117.91C95.0968 114.87 93.4768 110.63 93.4768 105.31C93.4768 104.13 94.4368 103.17 95.6168 103.17C96.7968 103.17 97.7568 104.13 97.7568 105.31C97.7568 109.41 98.9168 112.6 101.217 114.8C105.217 118.63 111.477 118.4 111.537 118.39C112.657 118.34 113.717 119.25 113.767 120.42C113.827 121.59 112.917 122.59 111.747 122.65C111.707 122.65 111.537 122.66 111.257 122.66H111.247Z" fill="white"/>
<path d="M111.247 133.87C109.417 133.87 102.937 133.54 98.2868 129.12C95.0968 126.08 93.4768 121.84 93.4768 116.52C93.4768 115.34 94.4368 114.38 95.6168 114.38C96.7968 114.38 97.7568 115.34 97.7568 116.52C97.7568 120.62 98.9168 123.81 101.217 126.01C105.217 129.84 111.477 129.61 111.537 129.6C112.657 129.54 113.717 130.46 113.767 131.63C113.827 132.81 112.917 133.8 111.747 133.86C111.707 133.86 111.537 133.87 111.257 133.87H111.247Z" fill="white"/>
<path d="M90.9868 144.36C89.8068 144.36 88.8468 143.4 88.8468 142.22V104.04C84.8468 108.99 79.4768 109.8 79.3868 109.81C78.2268 109.97 77.1468 109.15 76.9868 107.98C76.8268 106.81 77.6468 105.74 78.8068 105.58C79.2568 105.51 88.8468 103.89 88.8468 90.08C88.8468 88.9 89.8068 87.94 90.9868 87.94C92.1668 87.94 93.1268 88.9 93.1268 90.08V142.22C93.1268 143.4 92.1668 144.36 90.9868 144.36Z" fill="#FF7A34"/>
<path d="M75.3568 122.66C75.0768 122.66 74.9168 122.66 74.8668 122.65C73.6868 122.59 72.7768 121.59 72.8368 120.41C72.8968 119.23 73.8968 118.35 75.0668 118.38C75.1268 118.38 81.3868 118.62 85.3868 114.79C87.6868 112.59 88.8468 109.4 88.8468 105.3C88.8468 104.12 89.8068 103.16 90.9868 103.16C92.1668 103.16 93.1268 104.12 93.1268 105.3C93.1268 110.63 91.5068 114.87 88.3168 117.9C83.6668 122.32 77.1868 122.65 75.3568 122.65V122.66Z" fill="#FF7A34"/>
<path d="M75.3568 133.87C75.0768 133.87 74.9168 133.87 74.8668 133.86C73.6868 133.8 72.7768 132.8 72.8368 131.62C72.8968 130.44 73.8968 129.57 75.0668 129.59C75.1268 129.59 81.3868 129.82 85.3868 126C87.6868 123.8 88.8468 120.61 88.8468 116.51C88.8468 115.33 89.8068 114.37 90.9868 114.37C92.1668 114.37 93.1268 115.33 93.1268 116.51C93.1268 121.84 91.5068 126.08 88.3168 129.11C83.6668 133.53 77.1868 133.86 75.3568 133.86V133.87Z" fill="#FF7A34"/>
<path d="M91.3468 144.36C90.1668 144.36 89.2068 143.4 89.2068 142.22V90.08C89.2068 88.9 90.1668 87.94 91.3468 87.94C92.5268 87.94 93.4868 88.9 93.4868 90.08C93.4868 104.08 103.707 106.58 104.137 106.68C105.277 106.94 106.007 108.08 105.747 109.23C105.497 110.38 104.367 111.1 103.217 110.85C103.127 110.83 97.5668 109.54 93.4768 104.19V142.22C93.4768 143.4 92.5168 144.36 91.3368 144.36H91.3468Z" fill="#FF7A34"/>
<path d="M106.977 122.66C105.147 122.66 98.6668 122.33 94.0168 117.91C90.8268 114.87 89.2068 110.63 89.2068 105.31C89.2068 104.13 90.1668 103.17 91.3468 103.17C92.5268 103.17 93.4868 104.13 93.4868 105.31C93.4868 109.41 94.6468 112.6 96.9468 114.8C100.947 118.63 107.197 118.4 107.267 118.39C108.377 118.34 109.437 119.25 109.497 120.42C109.557 121.59 108.647 122.59 107.477 122.65C107.437 122.65 107.267 122.66 106.987 122.66H106.977Z" fill="#FF7A34"/>
<path d="M106.977 133.87C105.147 133.87 98.6668 133.54 94.0168 129.12C90.8268 126.08 89.2068 121.84 89.2068 116.52C89.2068 115.34 90.1668 114.38 91.3468 114.38C92.5268 114.38 93.4868 115.34 93.4868 116.52C93.4868 120.62 94.6468 123.81 96.9468 126.01C100.947 129.84 107.197 129.61 107.267 129.6C108.377 129.54 109.437 130.46 109.497 131.63C109.557 132.81 108.647 133.8 107.477 133.86C107.437 133.86 107.267 133.87 106.987 133.87H106.977Z" fill="#FF7A34"/>
<path d="M93.6867 81.26C93.1367 81.26 92.5867 81.05 92.1667 80.63C91.3267 79.79 91.3267 78.43 92.1667 77.58L103.817 65.93L100.537 63.63C100.037 63.28 99.7067 62.73 99.6367 62.13C99.5567 61.52 99.7467 60.91 100.147 60.45L114.687 43.75C115.467 42.86 116.827 42.76 117.727 43.54C118.627 44.32 118.717 45.68 117.937 46.58L104.967 61.47L108.397 63.87C108.917 64.24 109.247 64.81 109.307 65.45C109.357 66.08 109.137 66.71 108.687 67.16L95.2167 80.63C94.7967 81.05 94.2467 81.26 93.6967 81.26H93.6867Z" fill="#074535"/>
<path d="M193.357 146.38H16.6468C15.7368 146.38 14.8968 145.89 14.4568 145.09C14.0168 144.3 14.0368 143.32 14.5268 142.55L23.3868 128.38C24.1168 127.21 25.6568 126.85 26.8368 127.59C28.0068 128.32 28.3668 129.86 27.6268 131.04L21.1568 141.38H188.847L104.997 7.23L70.0168 63.19C69.2868 64.36 67.7468 64.72 66.5668 63.98C65.3968 63.25 65.0368 61.71 65.7768 60.53L102.877 1.17C103.337 0.439998 104.137 0 104.997 0C105.857 0 106.657 0.439998 107.117 1.17L195.477 142.54C195.957 143.31 195.987 144.28 195.547 145.08C195.107 145.88 194.267 146.37 193.357 146.37V146.38Z" fill="#074535"/>
<path d="M20.7936 181.88C20.7936 183.38 20.5436 184.78 20.0436 186.08C19.5436 187.38 18.8336 188.53 17.9136 189.53C17.0136 190.51 15.9336 191.28 14.6736 191.84C13.4336 192.4 12.0736 192.68 10.5936 192.68C9.11356 192.68 7.75356 192.4 6.51356 191.84C5.27356 191.28 4.19356 190.51 3.27356 189.53C2.37356 188.53 1.67356 187.38 1.17356 186.08C0.673557 184.78 0.423557 183.38 0.423557 181.88C0.423557 180.38 0.673557 178.98 1.17356 177.68C1.67356 176.38 2.37356 175.24 3.27356 174.26C4.19356 173.26 5.27356 172.48 6.51356 171.92C7.75356 171.36 9.11356 171.08 10.5936 171.08C12.0736 171.08 13.4336 171.36 14.6736 171.92C15.9336 172.48 17.0136 173.26 17.9136 174.26C18.8336 175.24 19.5436 176.38 20.0436 177.68C20.5436 178.98 20.7936 180.38 20.7936 181.88ZM16.8936 181.88C16.8936 180.54 16.6236 179.33 16.0836 178.25C15.5436 177.15 14.8036 176.28 13.8636 175.64C12.9236 175 11.8336 174.68 10.5936 174.68C9.35356 174.68 8.26356 175 7.32356 175.64C6.38356 176.28 5.64356 177.14 5.10356 178.22C4.58356 179.3 4.32356 180.52 4.32356 181.88C4.32356 183.22 4.58356 184.44 5.10356 185.54C5.64356 186.62 6.38356 187.48 7.32356 188.12C8.26356 188.76 9.35356 189.08 10.5936 189.08C11.8336 189.08 12.9236 188.76 13.8636 188.12C14.8036 187.48 15.5436 186.62 16.0836 185.54C16.6236 184.44 16.8936 183.22 16.8936 181.88ZM32.1972 176.03C33.6772 176.03 34.7972 176.34 35.5572 176.96C36.3372 177.58 36.8672 178.41 37.1472 179.45C37.4472 180.47 37.5972 181.61 37.5972 182.87V190.55C37.5972 191.07 37.4272 191.51 37.0872 191.87C36.7472 192.21 36.3172 192.38 35.7972 192.38C35.2772 192.38 34.8472 192.21 34.5072 191.87C34.1672 191.51 33.9972 191.07 33.9972 190.55V182.87C33.9972 182.21 33.9072 181.62 33.7272 181.1C33.5672 180.56 33.2672 180.13 32.8272 179.81C32.3872 179.49 31.7572 179.33 30.9372 179.33C30.1372 179.33 29.4572 179.49 28.8972 179.81C28.3572 180.13 27.9372 180.56 27.6372 181.1C27.3572 181.62 27.2172 182.21 27.2172 182.87V190.55C27.2172 191.07 27.0472 191.51 26.7072 191.87C26.3672 192.21 25.9372 192.38 25.4172 192.38C24.8972 192.38 24.4672 192.21 24.1272 191.87C23.7872 191.51 23.6172 191.07 23.6172 190.55V178.16C23.6172 177.64 23.7872 177.21 24.1272 176.87C24.4672 176.51 24.8972 176.33 25.4172 176.33C25.9372 176.33 26.3672 176.51 26.7072 176.87C27.0472 177.21 27.2172 177.64 27.2172 178.16V179.45L26.7672 179.36C26.9472 179.02 27.2072 178.66 27.5472 178.28C27.8872 177.88 28.2872 177.51 28.7472 177.17C29.2072 176.83 29.7272 176.56 30.3072 176.36C30.8872 176.14 31.5172 176.03 32.1972 176.03ZM41.3483 176.63H48.4583C48.9383 176.63 49.3383 176.79 49.6583 177.11C49.9783 177.43 50.1383 177.83 50.1383 178.31C50.1383 178.77 49.9783 179.16 49.6583 179.48C49.3383 179.78 48.9383 179.93 48.4583 179.93H41.3483C40.8683 179.93 40.4683 179.77 40.1483 179.45C39.8283 179.13 39.6683 178.73 39.6683 178.25C39.6683 177.79 39.8283 177.41 40.1483 177.11C40.4683 176.79 40.8683 176.63 41.3483 176.63ZM44.5583 172.88C45.0783 172.88 45.4983 173.06 45.8183 173.42C46.1583 173.76 46.3283 174.19 46.3283 174.71V188.06C46.3283 188.34 46.3783 188.57 46.4783 188.75C46.5983 188.93 46.7483 189.06 46.9283 189.14C47.1283 189.22 47.3383 189.26 47.5583 189.26C47.7983 189.26 48.0183 189.22 48.2183 189.14C48.4183 189.04 48.6483 188.99 48.9083 188.99C49.1883 188.99 49.4383 189.12 49.6583 189.38C49.8983 189.64 50.0183 190 50.0183 190.46C50.0183 191.02 49.7083 191.48 49.0883 191.84C48.4883 192.2 47.8383 192.38 47.1383 192.38C46.7183 192.38 46.2483 192.35 45.7283 192.29C45.2283 192.21 44.7483 192.04 44.2883 191.78C43.8483 191.5 43.4783 191.08 43.1783 190.52C42.8783 189.96 42.7283 189.19 42.7283 188.21V174.71C42.7283 174.19 42.8983 173.76 43.2383 173.42C43.5983 173.06 44.0383 172.88 44.5583 172.88ZM66.2637 176.03C66.7837 176.03 67.2137 176.2 67.5537 176.54C67.8937 176.88 68.0637 177.32 68.0637 177.86V190.55C68.0637 191.07 67.8937 191.51 67.5537 191.87C67.2137 192.21 66.7837 192.38 66.2637 192.38C65.7437 192.38 65.3137 192.21 64.9737 191.87C64.6337 191.51 64.4637 191.07 64.4637 190.55V189.08L65.1237 189.35C65.1237 189.61 64.9837 189.93 64.7037 190.31C64.4237 190.67 64.0437 191.03 63.5637 191.39C63.0837 191.75 62.5137 192.06 61.8537 192.32C61.2137 192.56 60.5137 192.68 59.7537 192.68C58.3737 192.68 57.1237 192.33 56.0037 191.63C54.8837 190.91 53.9937 189.93 53.3337 188.69C52.6937 187.43 52.3737 185.99 52.3737 184.37C52.3737 182.73 52.6937 181.29 53.3337 180.05C53.9937 178.79 54.8737 177.81 55.9737 177.11C57.0737 176.39 58.2937 176.03 59.6337 176.03C60.4937 176.03 61.2837 176.16 62.0037 176.42C62.7237 176.68 63.3437 177.01 63.8637 177.41C64.4037 177.81 64.8137 178.22 65.0937 178.64C65.3937 179.04 65.5437 179.38 65.5437 179.66L64.4637 180.05V177.86C64.4637 177.34 64.6337 176.91 64.9737 176.57C65.3137 176.21 65.7437 176.03 66.2637 176.03ZM60.2037 189.38C61.0837 189.38 61.8537 189.16 62.5137 188.72C63.1737 188.28 63.6837 187.68 64.0437 186.92C64.4237 186.16 64.6137 185.31 64.6137 184.37C64.6137 183.41 64.4237 182.55 64.0437 181.79C63.6837 181.03 63.1737 180.43 62.5137 179.99C61.8537 179.55 61.0837 179.33 60.2037 179.33C59.3437 179.33 58.5837 179.55 57.9237 179.99C57.2637 180.43 56.7437 181.03 56.3637 181.79C56.0037 182.55 55.8237 183.41 55.8237 184.37C55.8237 185.31 56.0037 186.16 56.3637 186.92C56.7437 187.68 57.2637 188.28 57.9237 188.72C58.5837 189.16 59.3437 189.38 60.2037 189.38ZM73.4416 192.38C72.9216 192.38 72.4916 192.21 72.1516 191.87C71.8116 191.51 71.6416 191.07 71.6416 190.55V178.16C71.6416 177.64 71.8116 177.21 72.1516 176.87C72.4916 176.51 72.9216 176.33 73.4416 176.33C73.9616 176.33 74.3916 176.51 74.7316 176.87C75.0716 177.21 75.2416 177.64 75.2416 178.16V180.98L75.0316 178.97C75.2516 178.49 75.5316 178.07 75.8716 177.71C76.2316 177.33 76.6316 177.02 77.0716 176.78C77.5116 176.52 77.9816 176.33 78.4816 176.21C78.9816 176.09 79.4816 176.03 79.9816 176.03C80.5816 176.03 81.0816 176.2 81.4816 176.54C81.9016 176.88 82.1116 177.28 82.1116 177.74C82.1116 178.4 81.9416 178.88 81.6016 179.18C81.2616 179.46 80.8916 179.6 80.4916 179.6C80.1116 179.6 79.7616 179.53 79.4416 179.39C79.1416 179.25 78.7916 179.18 78.3916 179.18C78.0316 179.18 77.6616 179.27 77.2816 179.45C76.9216 179.61 76.5816 179.87 76.2616 180.23C75.9616 180.59 75.7116 181.04 75.5116 181.58C75.3316 182.1 75.2416 182.72 75.2416 183.44V190.55C75.2416 191.07 75.0716 191.51 74.7316 191.87C74.3916 192.21 73.9616 192.38 73.4416 192.38ZM87.7194 190.55C87.7194 191.07 87.5494 191.51 87.2094 191.87C86.8694 192.21 86.4394 192.38 85.9194 192.38C85.3994 192.38 84.9694 192.21 84.6294 191.87C84.2894 191.51 84.1194 191.07 84.1194 190.55V178.16C84.1194 177.64 84.2894 177.21 84.6294 176.87C84.9694 176.51 85.3994 176.33 85.9194 176.33C86.4394 176.33 86.8694 176.51 87.2094 176.87C87.5494 177.21 87.7194 177.64 87.7194 178.16V190.55ZM85.8894 174.38C85.2094 174.38 84.7294 174.27 84.4494 174.05C84.1694 173.83 84.0294 173.44 84.0294 172.88V172.31C84.0294 171.73 84.1794 171.34 84.4794 171.14C84.7994 170.92 85.2794 170.81 85.9194 170.81C86.6194 170.81 87.1094 170.92 87.3894 171.14C87.6694 171.36 87.8094 171.75 87.8094 172.31V172.88C87.8094 173.46 87.6594 173.86 87.3594 174.08C87.0594 174.28 86.5694 174.38 85.8894 174.38ZM106.669 184.37C106.669 186.01 106.299 187.46 105.559 188.72C104.839 189.96 103.859 190.93 102.619 191.63C101.399 192.33 100.029 192.68 98.5093 192.68C96.9893 192.68 95.6093 192.33 94.3693 191.63C93.1493 190.93 92.1693 189.96 91.4293 188.72C90.7093 187.46 90.3493 186.01 90.3493 184.37C90.3493 182.73 90.7093 181.29 91.4293 180.05C92.1693 178.79 93.1493 177.81 94.3693 177.11C95.6093 176.39 96.9893 176.03 98.5093 176.03C100.029 176.03 101.399 176.39 102.619 177.11C103.859 177.81 104.839 178.79 105.559 180.05C106.299 181.29 106.669 182.73 106.669 184.37ZM103.069 184.37C103.069 183.35 102.859 182.47 102.439 181.73C102.039 180.97 101.489 180.38 100.789 179.96C100.109 179.54 99.3493 179.33 98.5093 179.33C97.6693 179.33 96.8993 179.54 96.1993 179.96C95.5193 180.38 94.9693 180.97 94.5493 181.73C94.1493 182.47 93.9493 183.35 93.9493 184.37C93.9493 185.37 94.1493 186.25 94.5493 187.01C94.9693 187.75 95.5193 188.33 96.1993 188.75C96.8993 189.17 97.6693 189.38 98.5093 189.38C99.3493 189.38 100.109 189.17 100.789 188.75C101.489 188.33 102.039 187.75 102.439 187.01C102.859 186.25 103.069 185.37 103.069 184.37ZM137.208 181.88C137.208 183.38 136.958 184.78 136.458 186.08C135.958 187.38 135.248 188.53 134.328 189.53C133.428 190.51 132.348 191.28 131.088 191.84C129.848 192.4 128.488 192.68 127.008 192.68C125.528 192.68 124.168 192.4 122.928 191.84C121.688 191.28 120.608 190.51 119.688 189.53C118.788 188.53 118.088 187.38 117.588 186.08C117.088 184.78 116.838 183.38 116.838 181.88C116.838 180.38 117.088 178.98 117.588 177.68C118.088 176.38 118.788 175.24 119.688 174.26C120.608 173.26 121.688 172.48 122.928 171.92C124.168 171.36 125.528 171.08 127.008 171.08C128.488 171.08 129.848 171.36 131.088 171.92C132.348 172.48 133.428 173.26 134.328 174.26C135.248 175.24 135.958 176.38 136.458 177.68C136.958 178.98 137.208 180.38 137.208 181.88ZM133.308 181.88C133.308 180.54 133.038 179.33 132.498 178.25C131.958 177.15 131.218 176.28 130.278 175.64C129.338 175 128.248 174.68 127.008 174.68C125.768 174.68 124.678 175 123.738 175.64C122.798 176.28 122.058 177.14 121.518 178.22C120.998 179.3 120.738 180.52 120.738 181.88C120.738 183.22 120.998 184.44 121.518 185.54C122.058 186.62 122.798 187.48 123.738 188.12C124.678 188.76 125.768 189.08 127.008 189.08C128.248 189.08 129.338 188.76 130.278 188.12C131.218 187.48 131.958 186.62 132.498 185.54C133.038 184.44 133.308 183.22 133.308 181.88ZM151.942 176.33C152.462 176.33 152.892 176.51 153.232 176.87C153.572 177.21 153.742 177.64 153.742 178.16V185.78C153.742 187.9 153.152 189.58 151.972 190.82C150.792 192.06 149.092 192.68 146.872 192.68C144.652 192.68 142.952 192.06 141.772 190.82C140.612 189.58 140.032 187.9 140.032 185.78V178.16C140.032 177.64 140.202 177.21 140.542 176.87C140.882 176.51 141.312 176.33 141.832 176.33C142.352 176.33 142.782 176.51 143.122 176.87C143.462 177.21 143.632 177.64 143.632 178.16V185.78C143.632 187 143.902 187.91 144.442 188.51C144.982 189.09 145.792 189.38 146.872 189.38C147.972 189.38 148.792 189.09 149.332 188.51C149.872 187.91 150.142 187 150.142 185.78V178.16C150.142 177.64 150.312 177.21 150.652 176.87C150.992 176.51 151.422 176.33 151.942 176.33ZM157.499 176.63H164.609C165.089 176.63 165.489 176.79 165.809 177.11C166.129 177.43 166.289 177.83 166.289 178.31C166.289 178.77 166.129 179.16 165.809 179.48C165.489 179.78 165.089 179.93 164.609 179.93H157.499C157.019 179.93 156.619 179.77 156.299 179.45C155.979 179.13 155.819 178.73 155.819 178.25C155.819 177.79 155.979 177.41 156.299 177.11C156.619 176.79 157.019 176.63 157.499 176.63ZM160.709 172.88C161.229 172.88 161.649 173.06 161.969 173.42C162.309 173.76 162.479 174.19 162.479 174.71V188.06C162.479 188.34 162.529 188.57 162.629 188.75C162.749 188.93 162.899 189.06 163.079 189.14C163.279 189.22 163.489 189.26 163.709 189.26C163.949 189.26 164.169 189.22 164.369 189.14C164.569 189.04 164.799 188.99 165.059 188.99C165.339 188.99 165.589 189.12 165.809 189.38C166.049 189.64 166.169 190 166.169 190.46C166.169 191.02 165.859 191.48 165.239 191.84C164.639 192.2 163.989 192.38 163.289 192.38C162.869 192.38 162.399 192.35 161.879 192.29C161.379 192.21 160.899 192.04 160.439 191.78C159.999 191.5 159.629 191.08 159.329 190.52C159.029 189.96 158.879 189.19 158.879 188.21V174.71C158.879 174.19 159.049 173.76 159.389 173.42C159.749 173.06 160.189 172.88 160.709 172.88ZM172.665 190.55C172.665 191.07 172.495 191.51 172.155 191.87C171.815 192.21 171.385 192.38 170.865 192.38C170.345 192.38 169.915 192.21 169.575 191.87C169.235 191.51 169.065 191.07 169.065 190.55V178.16C169.065 177.64 169.235 177.21 169.575 176.87C169.915 176.51 170.345 176.33 170.865 176.33C171.385 176.33 171.815 176.51 172.155 176.87C172.495 177.21 172.665 177.64 172.665 178.16V190.55ZM170.835 174.38C170.155 174.38 169.675 174.27 169.395 174.05C169.115 173.83 168.975 173.44 168.975 172.88V172.31C168.975 171.73 169.125 171.34 169.425 171.14C169.745 170.92 170.225 170.81 170.865 170.81C171.565 170.81 172.055 170.92 172.335 171.14C172.615 171.36 172.755 171.75 172.755 172.31V172.88C172.755 173.46 172.605 173.86 172.305 174.08C172.005 174.28 171.515 174.38 170.835 174.38ZM184.624 176.03C186.104 176.03 187.224 176.34 187.984 176.96C188.764 177.58 189.294 178.41 189.574 179.45C189.874 180.47 190.024 181.61 190.024 182.87V190.55C190.024 191.07 189.854 191.51 189.514 191.87C189.174 192.21 188.744 192.38 188.224 192.38C187.704 192.38 187.274 192.21 186.934 191.87C186.594 191.51 186.424 191.07 186.424 190.55V182.87C186.424 182.21 186.334 181.62 186.154 181.1C185.994 180.56 185.694 180.13 185.254 179.81C184.814 179.49 184.184 179.33 183.364 179.33C182.564 179.33 181.884 179.49 181.324 179.81C180.784 180.13 180.364 180.56 180.064 181.1C179.784 181.62 179.644 182.21 179.644 182.87V190.55C179.644 191.07 179.474 191.51 179.134 191.87C178.794 192.21 178.364 192.38 177.844 192.38C177.324 192.38 176.894 192.21 176.554 191.87C176.214 191.51 176.044 191.07 176.044 190.55V178.16C176.044 177.64 176.214 177.21 176.554 176.87C176.894 176.51 177.324 176.33 177.844 176.33C178.364 176.33 178.794 176.51 179.134 176.87C179.474 177.21 179.644 177.64 179.644 178.16V179.45L179.194 179.36C179.374 179.02 179.634 178.66 179.974 178.28C180.314 177.88 180.714 177.51 181.174 177.17C181.634 176.83 182.154 176.56 182.734 176.36C183.314 176.14 183.944 176.03 184.624 176.03ZM200.256 176.03C201.096 176.03 201.866 176.16 202.566 176.42C203.266 176.68 203.866 177.01 204.366 177.41C204.886 177.81 205.286 178.22 205.566 178.64C205.866 179.04 206.016 179.38 206.016 179.66L205.236 180.05V177.86C205.236 177.34 205.406 176.91 205.746 176.57C206.086 176.21 206.516 176.03 207.036 176.03C207.556 176.03 207.986 176.2 208.326 176.54C208.666 176.88 208.836 177.32 208.836 177.86V191.21C208.836 192.95 208.456 194.34 207.696 195.38C206.956 196.44 205.976 197.2 204.756 197.66C203.536 198.14 202.226 198.38 200.826 198.38C200.426 198.38 199.906 198.33 199.266 198.23C198.626 198.13 198.016 198.01 197.436 197.87C196.856 197.73 196.416 197.6 196.116 197.48C195.516 197.22 195.096 196.89 194.856 196.49C194.636 196.11 194.596 195.7 194.736 195.26C194.916 194.68 195.206 194.28 195.606 194.06C196.006 193.86 196.426 193.84 196.866 194C197.066 194.06 197.396 194.18 197.856 194.36C198.316 194.54 198.816 194.7 199.356 194.84C199.916 195 200.406 195.08 200.826 195.08C202.326 195.08 203.436 194.78 204.156 194.18C204.876 193.58 205.236 192.75 205.236 191.69V189.08L205.596 189.35C205.596 189.61 205.456 189.93 205.176 190.31C204.916 190.67 204.546 191.03 204.066 191.39C203.606 191.75 203.056 192.06 202.416 192.32C201.776 192.56 201.096 192.68 200.376 192.68C198.956 192.68 197.676 192.33 196.536 191.63C195.396 190.91 194.496 189.93 193.836 188.69C193.176 187.43 192.846 185.99 192.846 184.37C192.846 182.73 193.176 181.29 193.836 180.05C194.496 178.79 195.386 177.81 196.506 177.11C197.626 176.39 198.876 176.03 200.256 176.03ZM200.826 179.33C199.926 179.33 199.136 179.55 198.456 179.99C197.776 180.43 197.246 181.03 196.866 181.79C196.486 182.55 196.296 183.41 196.296 184.37C196.296 185.31 196.486 186.16 196.866 186.92C197.246 187.68 197.776 188.28 198.456 188.72C199.136 189.16 199.926 189.38 200.826 189.38C201.746 189.38 202.546 189.16 203.226 188.72C203.906 188.28 204.436 187.68 204.816 186.92C205.196 186.16 205.386 185.31 205.386 184.37C205.386 183.41 205.196 182.55 204.816 181.79C204.436 181.03 203.906 180.43 203.226 179.99C202.546 179.55 201.746 179.33 200.826 179.33Z" fill="#074535"/>
</svg>
